<svg width="140" height="98" viewBox="0 0 140 98" fill="none" xmlns="http://www.w3.org/2000/svg">
<g clip-path="url(#clip0_70_474)">
<path d="M59.3577 49.7983L50.2608 42.074C53.085 39.0615 55.8471 36.1386 58.5979 33.2214C61.103 30.5673 63.6335 27.9412 66.1019 25.2563C66.6978 24.6096 67.2005 24.4836 68.0393 24.7831C73.9928 26.9081 80.0113 28.8623 85.9139 31.1132C88.6562 32.1603 90.2039 34.5876 90.6869 37.3929C90.845 38.3196 90.122 39.6466 89.3905 40.4278C84.177 46.0495 78.859 51.5761 73.5748 57.1334C73.1907 57.5366 72.8151 57.9454 72.27 58.5333C73.2868 59.3172 74.1707 60.1375 75.179 60.759C82.1887 65.0873 89.7831 68.1362 97.6147 70.6391C99.7893 71.3362 101.981 70.9415 104.136 70.3787C105.266 70.0988 106.381 69.8496 107.059 71.1906C107.785 72.6241 107.593 74.3991 106.494 75.2978C106.004 75.7307 105.419 76.0442 104.785 76.2133C101.851 76.8152 98.9082 77.4059 95.9456 77.8427C93.079 78.2682 90.4779 77.0532 87.9417 76.0285C80.6947 73.1 73.5014 70.0288 66.3166 66.9519C65.3563 66.5404 64.7717 66.5432 64.0402 67.3467C62.9105 68.5869 61.634 69.6928 60.3038 70.9639C60.7189 71.2438 60.9562 71.4174 61.2188 71.5462C69.2001 75.4657 77.1588 79.4497 85.1881 83.2825C86.7536 83.9932 88.4395 84.4072 90.1587 84.5031C94.6097 84.7831 99.0748 84.8447 103.534 84.9819C105.568 85.0778 107.572 84.4745 109.208 83.2741C114.433 79.4777 119.697 75.7317 124.942 71.9577C127.077 70.4207 127.447 68.9257 126.354 66.5292C125.507 64.7094 124.693 62.8896 123.905 61.0446C123.761 60.7086 123.646 60.1627 123.818 59.9247C125.998 56.7947 128.235 53.701 130.528 50.4982C131.833 53.3987 133.112 56.2375 134.381 59.0792C135.955 62.6068 137.521 66.1372 139.08 69.6704C141.057 74.0967 139.797 78.6798 135.843 81.5411L117.079 95.1363C114.035 97.3424 110.665 98.2299 106.884 97.9696C100.512 97.53 94.1324 97.2081 87.7525 96.9141C85.4533 96.8426 83.1958 96.2871 81.1297 95.2847C73.2218 91.4099 65.3337 87.51 57.3101 83.8956C53.873 82.3446 51.2606 79.92 48.4872 77.5655C46.482 75.8633 45.4342 73.7467 44.8665 71.2858C44.1379 68.139 44.8919 65.4065 47.109 63.0436C50.6873 59.2192 54.2288 55.364 57.7845 51.5201C58.2929 50.9741 58.79 50.4226 59.3577 49.7983Z" fill="#DC323F"/>
<path d="M123.297 0C127.265 4.58868 131.12 9.03177 134.938 13.5057C135.069 13.6809 135.16 13.8818 135.205 14.0948C135.25 14.3077 135.249 14.5279 135.201 14.7403C133.507 20.2473 133.459 25.7655 134.549 31.4152C135.368 35.6651 134.266 39.6407 131.465 43.0479C127.835 47.4378 124.195 51.8193 120.546 56.1924C120.01 56.8335 119.366 57.3906 118.792 58.0066C116.301 60.6887 113.407 61.3858 110.071 59.7396C108.009 62.0185 103.194 62.8192 100.277 60.3611C95.3597 62.5504 92.4423 62.0409 90.6489 58.5721C88.6126 59.734 86.486 60.5459 84.1136 59.678C83.3611 59.4251 82.6503 59.0638 82.0039 58.6057C80.3263 57.3262 80.3094 56.1868 81.7893 54.7561C86.5472 50.1927 91.3022 45.6264 96.0545 41.0573C97.7885 39.3775 97.9693 38.2744 96.8848 36.0823C96.1194 34.5369 95.275 33.0278 94.6056 31.446C94.069 30.1777 93.1455 29.4862 91.9367 28.9487C89.9598 28.1088 88.0365 27.1653 85.859 26.149C89.3554 23.1981 92.4366 19.9897 96.5911 18.3883C98.1924 17.7668 100.206 17.8116 101.957 18.0439C106.055 18.5871 109.433 17.7416 112.023 14.3176C115.412 9.83807 118.908 5.47897 122.362 1.06948C122.622 0.758713 122.904 0.456348 123.297 0Z" fill="#DC323F"/>
<path d="M58.9117 27.3251C56.6693 29.9876 54.5624 32.5297 52.3934 35.0158C52.1929 35.2454 51.5461 35.2706 51.1903 35.1558C50.0351 34.7918 48.9309 34.3159 47.7249 33.8595C47.482 34.2039 47.3408 34.6406 47.0641 34.7582C46.3439 35.0606 45.4486 35.5589 44.8414 35.349C44.2342 35.139 43.8783 34.1843 43.466 33.5208C43.3643 33.3584 43.5479 33.0336 43.466 32.8404C43.3503 32.4779 43.1317 32.1562 42.8362 31.9137C42.6554 31.8046 42.1668 32.0033 41.9494 32.1937C41.2207 32.8712 40.4215 33.1036 39.5092 32.6809C38.597 32.2581 38.2355 31.4798 38.3795 30.4971C38.4727 29.8112 38.5066 29.0973 37.665 28.9489C37.2272 28.8649 36.7274 29.1477 36.2529 29.2149C35.544 29.3128 34.6685 29.6516 34.1602 29.366C33.5953 29.0497 33.0304 28.1286 33.07 27.5043C33.1406 26.3452 32.6407 25.914 31.689 25.6565C31.2456 25.9812 30.8417 26.3984 30.3531 26.6112C29.2601 27.0871 27.9016 26.474 27.7209 25.2757C27.5458 24.1306 26.8736 24.0047 25.9981 23.9403C23.027 23.7303 20.327 24.3966 17.9632 26.2668C16.7177 27.2495 15.4214 28.1846 14.0714 29.2093C12.6028 28.0222 11.1596 26.8575 9.72207 25.6901C8.28454 24.5226 6.83852 23.3327 5.05078 21.8685C8.60649 19.3488 11.9843 16.9663 15.3705 14.5893C15.636 14.4046 15.9777 14.329 16.246 14.147C21.4087 10.6222 26.6957 11.1681 31.9686 13.783C39.3878 17.459 46.7647 21.219 54.1614 24.9397C55.6836 25.7181 57.22 26.4796 58.9117 27.3251Z" fill="#DC323F"/>
<path d="M7.98246 30.3086C11.0891 33.8642 13.8823 37.403 15.3678 41.7677C16.8703 46.18 15.3424 50.0519 11.4535 51.9305C8.36374 53.42 5.50277 52.916 2.88188 50.9114C0.260992 48.9069 -0.413975 46.1996 0.224302 43.1647C1.13088 38.842 3.77153 35.4208 6.46585 32.0556C6.89513 31.5125 7.37242 31.0029 7.98246 30.3086Z" fill="#DC323F"/>
</g>
<defs>
<clipPath id="clip0_70_474">
<rect width="140" height="98" fill="white"/>
</clipPath>
</defs>
</svg>
