<svg width="121" height="126" viewBox="0 0 121 126" fill="none" xmlns="http://www.w3.org/2000/svg">
<g clip-path="url(#clip0_70_458)">
<path d="M57.3251 36.3177C58.2003 33.0401 59.0848 30.1734 59.7272 27.2427C60.2672 24.7594 61.3565 23.8464 64.1776 24.0108C71.9377 24.474 79.5243 26.4577 86.4892 29.8448C93.4541 33.2319 99.656 37.9536 104.728 43.7309C109.801 49.5082 113.641 56.224 116.021 63.4812C118.402 70.7384 119.275 78.39 118.589 85.9837C118.18 91.2325 118.646 96.5116 119.967 101.614C123.002 113.829 119.603 120.047 106.932 122.174C75.6782 127.411 43.7381 127.327 12.5134 121.928C3.76145 120.43 -1.67591 114.87 0.53069 107.046C3.64042 96.0356 1.46174 85.0707 2.87694 74.2337C5.95873 50.9984 19.2542 35.496 41.432 27.0601C44.7465 25.8002 47.2138 25.9828 49.5135 28.9408C51.5145 31.2657 53.66 33.4671 55.9378 35.5325C56.3769 35.832 56.841 36.0946 57.3251 36.3177ZM22.2522 80.7249C22.1875 90.6408 26.1282 100.179 33.213 107.254C40.2978 114.33 49.9507 118.368 60.0624 118.486C65.1087 118.534 70.1151 117.606 74.7955 115.755C79.4758 113.905 83.7382 111.168 87.3389 107.701C90.9396 104.233 93.808 100.104 95.78 95.549C97.752 90.994 98.7889 86.1024 98.8315 81.154C98.8716 71.2386 94.9144 61.7093 87.822 54.6417C80.7297 47.5742 71.0766 43.541 60.9655 43.4207C55.9238 43.3567 50.919 44.2717 46.2394 46.1128C41.5599 47.9539 37.2982 50.6847 33.6997 54.148C30.1012 57.6113 27.237 61.7385 25.2724 66.292C23.3077 70.8454 22.2813 75.7351 22.2522 80.6793V80.7249Z" fill="#DC323F"/>
<path d="M43.9179 15.2476C40.8733 13.2116 36.8977 11.8969 36.5812 9.98882C36.2274 7.87071 38.676 3.99969 40.864 3.05932C45.2214 1.23337 50.1746 0.493846 55.0161 0.00996843C56.4406 -0.136108 58.9451 1.74464 59.42 3.18714C59.8948 4.62964 58.9638 7.50552 57.7068 8.29068C53.5171 10.8744 48.9083 12.8008 43.9179 15.2476Z" fill="#DC323F"/>
<path d="M54.9031 30.8402L46.3281 16.6616L54.7635 14.2148C55.1173 19.8662 55.4525 25.1706 55.7783 30.5298L54.9031 30.8402Z" fill="#DC323F"/>
<path d="M45.1484 110.325C48.6492 106.107 51.61 102.419 54.7197 98.8581C56.4794 96.8496 64.0302 96.6487 65.6875 98.6207C68.8997 102.455 71.907 106.463 75.175 110.626C64.9427 115.082 55.2969 114.908 45.1484 110.325Z" fill="#DC323F"/>
<path d="M67.1848 48.1875C77.4264 50.3786 85.1914 55.9113 90.6567 65.5341C85.2286 66.9674 80.2381 69.1403 75.2011 69.259C72.5756 69.3229 68.1624 66.164 67.5386 63.7355C66.3282 58.8876 67.1848 53.5649 67.1848 48.1875Z" fill="#DC323F"/>
<path d="M93.9837 76.3164C95.1289 87.4821 92.1216 96.265 84.5056 104.144C81.5262 99.5791 77.8485 95.7354 76.4147 91.1797C75.5768 88.4955 77.3458 83.3828 79.6455 81.7577C83.6025 78.9823 88.9374 78.0967 93.9837 76.3164Z" fill="#DC323F"/>
<path d="M30.6406 64.9398C36.3014 55.5544 44.0013 50.1587 55.0994 47.9219C54.755 53.5184 54.6153 58.7133 54.0567 63.8625C53.8146 66.1723 47.3251 69.6142 44.9416 68.9751C40.3329 67.7335 35.7614 66.3914 30.6406 64.9398Z" fill="#DC323F"/>
<path d="M27.1407 75.5762C32.2057 77.5026 36.6933 79.1185 41.1065 80.908C43.8997 82.04 46.1156 88.86 44.5142 91.2976C41.8328 95.3695 38.993 99.341 36.0044 103.668C28.7049 95.6069 25.6976 86.6415 27.1407 75.5762Z" fill="#DC323F"/>
<path d="M60.1479 90.2302C59.0212 90.2197 57.9086 89.9823 56.8792 89.533C55.8498 89.0836 54.9254 88.4317 54.1634 87.6177C53.4014 86.8037 52.818 85.845 52.4492 84.8009C52.0805 83.7568 51.9343 82.6496 52.0198 81.5478C52.1874 76.7638 55.893 73.4406 60.8834 73.5867C62.0101 73.5961 63.1229 73.8322 64.1527 74.2805C65.1826 74.7288 66.1076 75.3796 66.8704 76.1927C67.6333 77.0059 68.2178 77.9639 68.5877 79.0075C68.9576 80.0512 69.105 81.1582 69.0209 82.2599C68.9982 83.3628 68.7476 84.4498 68.2841 85.4549C67.8206 86.46 67.1539 87.3625 66.3244 88.1077C65.4949 88.8528 64.5198 89.4251 63.4581 89.7899C62.3964 90.1548 61.2703 90.3046 60.1479 90.2302Z" fill="#DC323F"/>
<path d="M76.3382 78.3165C74.4761 79.2294 73.3681 80.325 72.3533 80.2337C71.5712 80.1698 70.9288 78.6451 70.2305 77.7778C71.2174 77.0383 72.1391 75.8605 73.2099 75.7145C73.9175 75.6597 74.8392 77.0383 76.3382 78.3165Z" fill="#DC323F"/>
<path d="M60.4912 66.0352C61.6364 67.3772 63.033 68.3724 62.884 69.0023C62.6419 70.0157 61.3664 70.8283 60.5377 71.6774C59.6905 70.7644 58.4056 70.0431 58.1635 69.048C58.0146 68.3907 59.3832 67.359 60.4912 66.0352Z" fill="#DC323F"/>
<path d="M71.6801 91.7639C70.1532 93.0785 69.2501 94.4297 68.5332 94.3384C67.4624 94.2015 66.5221 93.0512 65.5352 92.3299C66.2334 91.4169 66.8759 89.9744 67.6487 89.9014C68.6728 89.801 69.8087 90.8235 71.6801 91.7639Z" fill="#DC323F"/>
<path d="M51.7957 77.9407C50.2316 79.0911 49.2074 80.3784 48.4998 80.2323C47.9284 80.0471 47.4051 79.742 46.9661 79.3384C46.5272 78.9348 46.1832 78.4423 45.958 77.8951C45.7904 77.4294 47.3266 75.6948 48.0529 75.713C49.0863 75.7404 50.0919 76.8543 51.7957 77.9407Z" fill="#DC323F"/>
<path d="M52.849 88.8789C54.0221 90.2027 55.4466 91.1613 55.307 91.8096C55.0928 92.8138 53.8359 93.6355 53.0166 94.5485C52.1693 93.6994 50.8751 92.969 50.6238 91.9739C50.4562 91.28 51.7876 90.2575 52.849 88.8789Z" fill="#F8F8F8"/>
</g>
<defs>
<clipPath id="clip0_70_458">
<rect width="121" height="126" fill="white"/>
</clipPath>
</defs>
</svg>
